<?xml version="1.0" encoding="UTF-8"?>
<svg version="1.1" xmlns="http://www.w3.org/2000/svg" width="256" height="256">
<path d="M0 0 C84.48 0 168.96 0 256 0 C256 84.48 256 168.96 256 256 C171.52 256 87.04 256 0 256 C0 171.52 0 87.04 0 0 Z " fill="#0D100E" transform="translate(0,0)"/>
<path d="M0 0 C7.26 0 14.52 0 22 0 C22 22.44 22 44.88 22 68 C16.72 68 11.44 68 6 68 C6 65.36 6 62.72 6 60 C0.72 60 -4.56 60 -10 60 C-10.66 61.98 -11.32 63.96 -12 66 C-12.33 66.66 -12.66 67.32 -13 68 C-18.61 68 -24.22 68 -30 68 C-27.66817703 60.36711237 -24.48137572 53.3279278 -21.0625 46.125 C-19.89749329 43.65009499 -18.73713865 41.17302906 -17.578125 38.6953125 C-17.28307571 38.06514221 -16.98802643 37.43497192 -16.68403625 36.78570557 C-12.93432592 28.75286291 -9.35948061 20.64304752 -5.78344727 12.53173828 C-5.08046509 10.93821533 -5.08046509 10.93821533 -4.36328125 9.3125 C-3.95376221 8.38050781 -3.54424316 7.44851562 -3.12231445 6.48828125 C-2.13548422 4.3003818 -1.07338138 2.14676275 0 0 Z " fill="#10E04C" transform="translate(148,94)"/>
<path d="M0 0 C4.90122695 2.8088238 6.43522904 7.41909592 8.16796875 12.48828125 C8.68359375 14.96484375 8.68359375 14.96484375 8.68359375 21.96484375 C3.07359375 21.96484375 -2.53640625 21.96484375 -8.31640625 21.96484375 C-8.97640625 19.65484375 -9.63640625 17.34484375 -10.31640625 14.96484375 C-13.10364282 14.37844555 -13.10364282 14.37844555 -16.31640625 14.96484375 C-24.10534868 22.93923719 -25.76326918 34.45273475 -25.75 45.1875 C-25.2692594 48.26683842 -24.38351472 49.67841342 -22.31640625 51.96484375 C-18.85760485 51.65040726 -16.80547855 51.35881866 -14.06640625 49.15234375 C-12.46015388 47.14452829 -11.3260223 45.32061452 -10.31640625 42.96484375 C-11.96640625 42.96484375 -13.61640625 42.96484375 -15.31640625 42.96484375 C-16.31640625 39.96484375 -16.31640625 39.96484375 -13.31640625 28.96484375 C-4.73640625 28.96484375 3.84359375 28.96484375 12.68359375 28.96484375 C11.46057217 39.97203799 11.46057217 39.97203799 9.68359375 42.96484375 C9.04679687 43.05636719 8.41 43.14789063 7.75390625 43.2421875 C5.41815203 43.78926197 5.41815203 43.78926197 4.4453125 46.40625 C4.09082031 47.43621094 3.73632812 48.46617187 3.37109375 49.52734375 C0.66643977 56.39928937 -2.19587911 61.73684751 -8.859375 65.33984375 C-15.63054839 68.09033449 -22.41866939 69.41697977 -29.54296875 67.3046875 C-34.59006729 65.12139207 -37.91232278 61.91278299 -40.31640625 56.96484375 C-45.14239077 42.63982631 -42.21745548 27.33290974 -35.62890625 14.02734375 C-28.00584839 1.11049571 -14.50466985 -6.33302486 0 0 Z " fill="#0FDF4B" transform="translate(75.31640625,95.03515625)"/>
<path d="M0 0 C22.07722616 -0.4822695 22.07722616 -0.4822695 30 6 C35.18476942 12.72618735 35.73897944 18.69175973 35 27 C32.8942107 37.0849548 28.55631142 44.18955078 19.9375 49.875 C14.41814832 53.21228241 9.01723702 54.26317526 2.625 54.625 C1.37976563 54.69976562 0.13453125 54.77453125 -1.1484375 54.8515625 C-2.08945313 54.90054688 -3.03046875 54.94953125 -4 55 C-2.02 56.32 -0.04 57.64 2 59 C1.34 61.97 0.68 64.94 0 68 C-5.28 68 -10.56 68 -16 68 C-15.35903119 60.69484081 -13.56232411 53.70060557 -11.79058838 46.60336304 C-10.87391455 42.93071663 -9.97060231 39.254818 -9.0703125 35.578125 C-8.89132416 34.84732224 -8.71233582 34.11651947 -8.52792358 33.36357117 C-6.71075197 25.89457274 -5.08268435 18.38720228 -3.54785156 10.85522461 C-3.28053223 9.57143921 -3.28053223 9.57143921 -3.0078125 8.26171875 C-2.78569092 7.16283325 -2.78569092 7.16283325 -2.55908203 6.04174805 C-1.95843662 3.84821199 -1.07917617 1.99667274 0 0 Z " fill="#0EE04B" transform="translate(188,94)"/>
<path d="M0 0 C3.33957432 3.09912497 5.81289716 6.57534396 7 11 C7 13.31 7 15.62 7 18 C1.72 18 -3.56 18 -9 18 C-9.66 16.02 -10.32 14.04 -11 12 C-12.98 12 -14.96 12 -17 12 C-17.4060387 16.2634064 -16.96019613 18.81846873 -14.41015625 22.30078125 C-12.01678788 25.18475699 -9.47428823 27.93127235 -6.90234375 30.65625 C-1.7844194 36.96170095 -1.41132968 42.44651924 -1.58984375 50.35546875 C-2.14634441 55.30037465 -3.41716819 58.53331984 -7 62 C-13.87085569 67.11179636 -20.68617729 67.73760151 -29 67 C-33.80655439 65.71515615 -36.87968718 63.73389733 -39.4375 59.4375 C-41.86424847 54.09865337 -42 52.33779983 -42 46 C-36.72 46 -31.44 46 -26 46 C-25.34 47.98 -24.68 49.96 -24 52 C-21.525 51.505 -21.525 51.505 -19 51 C-18.54248423 47.94989489 -18.55122879 45.77132552 -20.125 43.06640625 C-22.65166643 39.69093781 -25.40228391 36.53716262 -28.1875 33.375 C-33.43504854 27.20465421 -34.61166473 22.28833162 -34.41796875 14.19921875 C-33.63546314 8.20975995 -30.77971667 4.73408291 -26.5625 0.625 C-18.54350647 -4.46021541 -8.18434483 -4.9106069 0 0 Z " fill="#11E04D" transform="translate(123,96)"/>
<path d="M0 0 C1.89575251 -0.02721176 3.79161979 -0.04649136 5.6875 -0.0625 C6.74324219 -0.07410156 7.79898438 -0.08570312 8.88671875 -0.09765625 C11.72410262 -0.00865425 14.2438919 0.35060162 17 1 C17 1.66 17 2.32 17 3 C17.5775 3.185625 18.155 3.37125 18.75 3.5625 C22.58548809 6.01295073 23.9947826 9.9895652 26 14 C26.0962762 16.01896864 26.12981825 18.0412429 26.125 20.0625 C26.12886719 21.68865234 26.12886719 21.68865234 26.1328125 23.34765625 C26 26 26 26 25 27 C22.32424871 27.07334845 19.67480642 27.09237327 17 27.0625 C15.87464844 27.05573242 15.87464844 27.05573242 14.7265625 27.04882812 C12.81767704 27.03676838 10.90883061 27.01883714 9 27 C8.67 27 8.34 27 8 27 C7.34 28.32 6.68 29.64 6 31 C13.92 31 21.84 31 30 31 C29.34 30.01 28.68 29.02 28 28 C27.734375 25.0390625 27.734375 25.0390625 27.75 21.625 C27.74226563 19.94277344 27.74226563 19.94277344 27.734375 18.2265625 C27.99424731 15.06987823 28.65679302 12.84631955 30 10 C30.66 10 31.32 10 32 10 C32 9.34 32 8.68 32 8 C32.66 8.33 33.32 8.66 34 9 C33.505 9.721875 33.01 10.44375 32.5 11.1875 C29.91909825 16.46151661 30.18835623 22.31178582 31 28 C33.61018233 34.73101964 38.48208443 39.98089006 43.36328125 45.1875 C45.58042788 47.642765 45.97790637 48.64650197 46.1875 52 C46 55 46 55 44 57 C41.375 56.625 41.375 56.625 39 56 C38.505 53.03 38.505 53.03 38 50 C32.72 50 27.44 50 22 50 C22.66 53.96 23.32 57.92 24 62 C22 62 22 62 20.375 60.5 C19.92125 60.005 19.4675 59.51 19 59 C18.71125 59.639375 18.4225 60.27875 18.125 60.9375 C17 63 17 63 15 64 C13.86649466 66.01669827 13.86649466 66.01669827 13 68 C11.35 68 9.7 68 8 68 C8.70125 67.38125 9.4025 66.7625 10.125 66.125 C14.88111352 61.36888648 18.2525823 55.19088362 20.625 48.9375 C21.07875 47.968125 21.5325 46.99875 22 46 C23.98 45.505 23.98 45.505 26 45 C26.99 40.71 27.98 36.42 29 32 C20.42 32 11.84 32 3 32 C2.67 34.31 2.34 36.62 2 39 C1.6725678 41.00097458 1.34123581 43.00133314 1 45 C2.65 45.33 4.3 45.66 6 46 C4.6910959 49.92671231 3.2923796 52.43926031 0 55 C-3.25 55.75 -3.25 55.75 -6 56 C-10.48899408 51.15473654 -10.60020658 47.94941378 -10.3828125 41.55078125 C-9.44442072 32.84671873 -6.99734091 22.87707698 0 17 C3.25 16.375 3.25 16.375 6 17 C8 19 8 19 8 25 C13.61 25 19.22 25 25 25 C23.77312176 14.05461004 23.77312176 14.05461004 18 5 C12.65025005 1.59236417 6.17842481 1.36716049 0 1 C0 0.67 0 0.34 0 0 Z " fill="#071F0B" transform="translate(59,92)"/>
<path d="M0 0 C0.33 0 0.66 0 1 0 C1 18.81 1 37.62 1 57 C1.66 57 2.32 57 3 57 C3.12117188 56.02160156 3.24234375 55.04320312 3.3671875 54.03515625 C4.58020352 44.4581991 6.24281051 35.25627901 9 26 C9.66 26 10.32 26 11 26 C9.63189073 35.21696291 7.6108626 44.20943637 5.375 53.25 C5.04647331 54.59234967 4.71834607 55.93479717 4.390625 57.27734375 C3.59765612 60.51918712 2.7993802 63.75973159 2 67 C7.28 67 12.56 67 18 67 C18.33 64.03 18.66 61.06 19 58 C18.01 57.360625 17.02 56.72125 16 56.0625 C15.01 55.381875 14.02 54.70125 13 54 C13 53.67 13 53.34 13 53 C19.27 52.67 25.54 52.34 32 52 C29.24072656 54.75927344 26.78845948 54.51783243 23 55 C21.27246655 56.72753345 21.66995281 59.14493966 21.5 61.5 C21.11111111 66.88888889 21.11111111 66.88888889 20 68 C17.26105915 68.08858646 14.5474673 68.11523479 11.80859375 68.09765625 C10.98875504 68.0962413 10.16891632 68.09482635 9.32423401 68.09336853 C6.69528618 68.08775289 4.06642227 68.07519779 1.4375 68.0625 C-0.34049357 68.05748701 -2.11848846 68.05292376 -3.89648438 68.04882812 C-8.26435545 68.03777839 -12.63216348 68.02050331 -17 68 C-18 66 -18 66 -18 60 C-22.29 60 -26.58 60 -31 60 C-31 60.66 -31 61.32 -31 62 C-31.66 61.67 -32.32 61.34 -33 61 C-32.67 60.34 -32.34 59.68 -32 59 C-26.72 59 -21.44 59 -16 59 C-16 61.64 -16 64.28 -16 67 C-10.72 67 -5.44 67 0 67 C0 44.89 0 22.78 0 0 Z " fill="#05390F" transform="translate(170,95)"/>
<path d="M0 0 C1.93559313 -0.13504138 3.873872 -0.23201129 5.8125 -0.3125 C6.89144531 -0.37050781 7.97039062 -0.42851563 9.08203125 -0.48828125 C12 0 12 0 13.890625 2.21484375 C15.87519672 7.19723683 15.13076872 12.20633611 13.13671875 17.1328125 C11.43026503 20.28217497 10.00283481 21.99811013 7 24 C5.68 24 4.36 24 3 24 C3.65965039 17.13963599 5.2362764 10.65556077 7 4 C6.030625 3.71125 5.06125 3.4225 4.0625 3.125 C1 2 1 2 0 0 Z " fill="#09130C" transform="translate(192,109)"/>
<path d="M0 0 C0.33 0 0.66 0 1 0 C0.67 8.91 0.34 17.82 0 27 C-3.3 27 -6.6 27 -10 27 C-9.37882101 21.1473292 -7.21219333 16.08262185 -5 10.6875 C-4.63132813 9.76904297 -4.26265625 8.85058594 -3.8828125 7.90429688 C-1.14520575 1.14520575 -1.14520575 1.14520575 0 0 Z " fill="#012C07" transform="translate(155,112)"/>
<path d="M0 0 C0.8353125 1.0828125 0.8353125 1.0828125 1.6875 2.1875 C3.9729976 5.07086423 3.9729976 5.07086423 6.75 7.6875 C9 10 9 10 9 12 C9.66 12 10.32 12 11 12 C13.4294516 15.6441774 13.16179575 17.71241272 13 22 C11.68 22 10.36 22 9 22 C9 20.02 9 18.04 9 16 C8.30132812 15.95101562 7.60265625 15.90203125 6.8828125 15.8515625 C5.97273438 15.77679688 5.06265625 15.70203125 4.125 15.625 C3.22007813 15.55539063 2.31515625 15.48578125 1.3828125 15.4140625 C-1 15 -1 15 -3 13 C-2.79296875 10.21484375 -2.79296875 10.21484375 -2.1875 6.9375 C-1.99542969 5.85339844 -1.80335937 4.76929688 -1.60546875 3.65234375 C-1 1 -1 1 0 0 Z " fill="#0B110D" transform="translate(90,125)"/>
<path d="M0 0 C0.33 0 0.66 0 1 0 C1.625 3.375 1.625 3.375 2 7 C1.34 7.66 0.68 8.32 0 9 C-0.45811675 10.97235333 -0.45811675 10.97235333 -0.625 13.125 C-0.810625 15.043125 -0.810625 15.043125 -1 17 C-1.66 17 -2.32 17 -3 17 C-2.938125 18.299375 -2.87625 19.59875 -2.8125 20.9375 C-2.78775523 26.13390165 -4.15892319 30.16717336 -6 35 C-1.71 35 2.58 35 7 35 C7 32.36 7 29.72 7 27 C6.01 26.67 5.02 26.34 4 26 C4 25.34 4 24.68 4 24 C8.875 25.75 8.875 25.75 10 28 C9.52395702 30.72493566 8.73253881 33.32838788 8 36 C2.72 36 -2.56 36 -8 36 C-7.28159926 28.72619253 -5.6689287 21.73369157 -4 14.625 C-3.59007812 12.84416016 -3.59007812 12.84416016 -3.171875 11.02734375 C-1.13466151 2.26932303 -1.13466151 2.26932303 0 0 Z " fill="#28C856" transform="translate(180,126)"/>
<path d="M0 0 C2.33294775 -0.04241723 4.66702567 -0.04092937 7 0 C7.33 0.33 7.66 0.66 8 1 C9.34747084 1.23075082 10.70377565 1.41153063 12.0625 1.5625 C13.361875 1.706875 14.66125 1.85125 16 2 C16 2.33 16 2.66 16 3 C11.05 3.33 6.1 3.66 1 4 C0.98297167 10.18067329 0.98297167 10.18067329 2 16 C0 16 0 16 -1.625 14.5 C-2.07875 14.005 -2.5325 13.51 -3 13 C-3.28875 13.639375 -3.5775 14.27875 -3.875 14.9375 C-5 17 -5 17 -7 18 C-8.13350534 20.01669827 -8.13350534 20.01669827 -9 22 C-10.65 22 -12.3 22 -14 22 C-13.29875 21.38125 -12.5975 20.7625 -11.875 20.125 C-6.34245473 14.59245473 -2.82242462 7.21286291 0 0 Z " fill="#032506" transform="translate(81,138)"/>
<path d="M0 0 C1.1446875 0.3403125 1.1446875 0.3403125 2.3125 0.6875 C2.6425 2.6675 2.9725 4.6475 3.3125 6.6875 C8.2625 6.6875 13.2125 6.6875 18.3125 6.6875 C18.3125 7.0175 18.3125 7.3475 18.3125 7.6875 C17.18070313 7.72488281 16.04890625 7.76226562 14.8828125 7.80078125 C13.40100795 7.86643082 11.91923861 7.93287851 10.4375 8 C9.31794922 8.03383789 9.31794922 8.03383789 8.17578125 8.06835938 C6.212896 8.16561945 4.25921678 8.41792294 2.3125 8.6875 C0.37451737 11.46010299 0.37451737 11.46010299 -0.6875 13.6875 C-3.92464234 10.13708582 -5.58140495 7.56787243 -5.6875 2.6875 C-4.02651458 -0.17308599 -3.29707655 -0.38338099 0 0 Z " fill="#0B2611" transform="translate(110.6875,107.3125)"/>
<path d="M0 0 C0.66 0.33 1.32 0.66 2 1 C1.67386719 1.65484375 1.34773438 2.3096875 1.01171875 2.984375 C-5.125069 15.80102906 -9.14438358 30.27342815 -4.5625 44.3125 C-3.79050109 46.27046826 -2.94118422 48.11763156 -2 50 C-2.99 50 -3.98 50 -5 50 C-10.22549924 38.77917351 -10.62334264 26.81524774 -7 15 C-6.78214844 14.23042969 -6.56429687 13.46085937 -6.33984375 12.66796875 C-4.87021491 7.82542125 -3.01900629 4.06004294 0 0 Z " fill="#012205" transform="translate(40,106)"/>
<path d="M0 0 C0.66 0 1.32 0 2 0 C3.80317221 3.96697886 4.49202991 7.6822542 5 12 C5.99 9.69 6.98 7.38 8 5 C8.66 5 9.32 5 10 5 C7.49415892 13.40193774 3.78974143 21.11941439 0 29 C-1.32 28.34 -2.64 27.68 -4 27 C-3.175 25.989375 -2.35 24.97875 -1.5 23.9375 C2.5470472 17.56968844 2.01017529 8.73425432 0.4765625 1.546875 C0.31929688 1.03640625 0.16203125 0.5259375 0 0 Z " fill="#013209" transform="translate(119,131)"/>
<path d="M0 0 C0.66 0.33 1.32 0.66 2 1 C3.22322357 5.15896013 3 8.49478944 3 13 C-2.61 13 -8.22 13 -14 13 C-14.66 10.69 -15.32 8.38 -16 6 C-17.65 5.67 -19.3 5.34 -21 5 C-20.34 4.34 -19.68 3.68 -19 3 C-15 3 -15 3 -13.25 4.125 C-12 6 -12 6 -12 12 C-7.38 12 -2.76 12 2 12 C1.34 10.68 0.68 9.36 0 8 C-0.24636612 5.29982731 -0.09065666 2.71969994 0 0 Z " fill="#2CC457" transform="translate(81,104)"/>
<path d="M0 0 C21.05816938 -0.46000855 21.05816938 -0.46000855 29 5 C26.50907189 6.24546405 25.58919267 5.7767578 23 5 C23 4.34 23 3.68 23 3 C15.74 2.67 8.48 2.34 1 2 C1 2.99 1 3.98 1 5 C0.34 5 -0.32 5 -1 5 C-0.67 3.35 -0.34 1.7 0 0 Z " fill="#24CC56" transform="translate(188,94)"/>
<path d="M0 0 C0.33 0 0.66 0 1 0 C1.02505615 0.61520508 1.0501123 1.23041016 1.07592773 1.86425781 C1.19218487 4.65970156 1.31477642 7.45483298 1.4375 10.25 C1.47681641 11.21808594 1.51613281 12.18617188 1.55664062 13.18359375 C1.59853516 14.11816406 1.64042969 15.05273438 1.68359375 16.015625 C1.72025146 16.87446289 1.75690918 17.73330078 1.79467773 18.61816406 C1.99169784 20.90369099 2.20694903 22.84614896 3 25 C3.99 25.66 4.98 26.32 6 27 C5.67 28.32 5.34 29.64 5 31 C-0.39414332 25.06644235 -1.27482839 19.16411582 -1.1875 11.3125 C-1.18105469 10.02988281 -1.17460938 8.74726563 -1.16796875 7.42578125 C-1.03602731 4.73478952 -0.8059597 2.54683267 0 0 Z " fill="#2AC858" transform="translate(34,126)"/>
<path d="M0 0 C2.00720923 0.28674418 4.0085944 0.61866701 6 1 C6.04254356 2.99954746 6.04080783 5.00041636 6 7 C5 8 5 8 2.5625 8.1875 C0 8 0 8 -2 6 C-1.44444444 1.44444444 -1.44444444 1.44444444 0 0 Z " fill="#2C8042" transform="translate(208,154)"/>
<path d="M0 0 C1.04292667 2.71160934 1.05468154 3.84514556 0.0703125 6.6328125 C-1.35489472 11.11649361 -1.21641537 15.20578442 -1.125 19.875 C-1.11146484 21.19371094 -1.11146484 21.19371094 -1.09765625 22.5390625 C-1.07424577 24.6928271 -1.0383801 26.84645014 -1 29 C-3.94580078 26.33496094 -3.94580078 26.33496094 -4.43359375 23.3203125 C-4.44386348 14.91967301 -2.88731148 7.87565764 0 0 Z " fill="#002C06" transform="translate(53,117)"/>
<path d="M0 0 C1.93559313 -0.13504138 3.873872 -0.23201129 5.8125 -0.3125 C6.89144531 -0.37050781 7.97039062 -0.42851563 9.08203125 -0.48828125 C12 0 12 0 13.90625 2.1875 C15.11684934 5.30046972 15.16810708 7.03563355 14.6875 10.3125 C14.56761719 11.19550781 14.44773438 12.07851562 14.32421875 12.98828125 C14.21722656 13.65214844 14.11023438 14.31601563 14 15 C13.67 15 13.34 15 13 15 C12.96132812 13.73542969 12.96132812 13.73542969 12.921875 12.4453125 C12.83679688 10.80175781 12.83679688 10.80175781 12.75 9.125 C12.70359375 8.03445312 12.6571875 6.94390625 12.609375 5.8203125 C12.31153872 2.8667935 12.31153872 2.8667935 9.953125 1.6171875 C9.30859375 1.41351563 8.6640625 1.20984375 8 1 C7.67 2.32 7.34 3.64 7 5 C3.535 3.02 3.535 3.02 0 1 C0 0.67 0 0.34 0 0 Z " fill="#013006" transform="translate(192,109)"/>
<path d="M0 0 C1.5631897 0.00785522 1.5631897 0.00785522 3.15795898 0.01586914 C4.28266602 0.0190918 5.40737305 0.02231445 6.56616211 0.02563477 C7.75016602 0.03401367 8.93416992 0.04239258 10.15405273 0.05102539 C11.34192383 0.05553711 12.52979492 0.06004883 13.75366211 0.06469727 C16.69967499 0.07652864 19.64558954 0.09301252 22.59155273 0.11352539 C22.59155273 0.77352539 22.59155273 1.43352539 22.59155273 2.11352539 C23.58155273 2.11352539 24.57155273 2.11352539 25.59155273 2.11352539 C25.59155273 2.77352539 25.59155273 3.43352539 25.59155273 4.11352539 C25.05530273 3.96915039 24.51905273 3.82477539 23.96655273 3.67602539 C18.32503824 2.33987722 12.86734917 1.86854819 7.09155273 1.80102539 C6.03194336 1.77492188 6.03194336 1.77492188 4.95092773 1.74829102 C2.70870431 1.71450295 2.70870431 1.71450295 -0.40844727 2.11352539 C-1.39844727 3.59852539 -1.39844727 3.59852539 -2.40844727 5.11352539 C-2.97094727 3.17602539 -2.97094727 3.17602539 -3.40844727 1.11352539 C-2.40844727 0.11352539 -2.40844727 0.11352539 0 0 Z " fill="#002406" transform="translate(188.408447265625,92.886474609375)"/>
<path d="M0 0 C8.25 0 16.5 0 25 0 C25 0.33 25 0.66 25 1 C17.74 1 10.48 1 3 1 C2.34 2.98 1.68 4.96 1 7 C-0.625 9.375 -0.625 9.375 -2 11 C-1.855625 10.29875 -1.71125 9.5975 -1.5625 8.875 C-0.9857295 5.92706186 -0.49382685 2.96296111 0 0 Z " fill="#001500" transform="translate(145,93)"/>
<path d="M0 0 C0.33 0 0.66 0 1 0 C1 3.96 1 7.92 1 12 C-0.98 12 -2.96 12 -5 12 C-4.35758106 10.186287 -3.71096881 8.37405876 -3.0625 6.5625 C-2.70285156 5.55316406 -2.34320313 4.54382813 -1.97265625 3.50390625 C-1 1 -1 1 0 0 Z " fill="#0E100C" transform="translate(152,125)"/>
<path d="M0 0 C0.99443769 2.98331306 1.02452065 4.20838759 0.66015625 7.23046875 C0.56669922 8.03291016 0.47324219 8.83535156 0.37695312 9.66210938 C0.27318359 10.49548828 0.16941406 11.32886719 0.0625 12.1875 C-0.03740234 13.03248047 -0.13730469 13.87746094 -0.24023438 14.74804688 C-0.48757108 16.83274197 -0.74301041 18.91647284 -1 21 C-4.10752599 16.33871102 -3.49662427 11.46286701 -3 6 C-2.24432663 3.6281466 -1.39046578 2.08569867 0 0 Z " fill="#27D055" transform="translate(50,122)"/>
<path d="M0 0 C1.134375 0.020625 2.26875 0.04125 3.4375 0.0625 C3.4375 0.3925 3.4375 0.7225 3.4375 1.0625 C1.4575 1.7225 -0.5225 2.3825 -2.5625 3.0625 C-2.2325 4.7125 -1.9025 6.3625 -1.5625 8.0625 C0.0875 8.0625 1.7375 8.0625 3.4375 8.0625 C3.7675 7.4025 4.0975 6.7425 4.4375 6.0625 C5.0975 6.0625 5.7575 6.0625 6.4375 6.0625 C5.75 8 5.75 8 4.4375 10.0625 C1.44959809 11.24193497 0.08460534 11.34232934 -2.875 10.0625 C-4.5625 8.0625 -4.5625 8.0625 -4.875 4.4375 C-4.47138383 0.07844533 -4.47138383 0.07844533 0 0 Z " fill="#021307" transform="translate(209.5625,152.9375)"/>
<path d="M0 0 C0.33 0 0.66 0 1 0 C1.21755666 5.4389165 1.10428384 9.87080814 -1 15 C0.65 14.67 2.3 14.34 4 14 C2.75 15.5 2.75 15.5 1 17 C-0.32 17 -1.64 17 -3 17 C-2.36934845 11.2190275 -1.34844868 5.6556294 0 0 Z " fill="#003107" transform="translate(198,116)"/>
<path d="M0 0 C0.66 0.33 1.32 0.66 2 1 C1.49339844 2.051875 1.49339844 2.051875 0.9765625 3.125 C-1.65215941 8.71673215 -3.74396182 13.94817969 -5 20 C-5.33 20 -5.66 20 -6 20 C-5.88487847 18.27014758 -5.75744323 16.54111249 -5.625 14.8125 C-5.55539063 13.84957031 -5.48578125 12.88664062 -5.4140625 11.89453125 C-4.73047721 7.11588315 -3.02997332 3.71860363 0 0 Z " fill="#03330D" transform="translate(40,106)"/>
<path d="M0 0 C0.66 0 1.32 0 2 0 C0.6910959 3.92671231 -0.7076204 6.43926031 -4 9 C-7.25 9.75 -7.25 9.75 -10 10 C-10.33 9.34 -10.66 8.68 -11 8 C-8.03 7.34 -5.06 6.68 -2 6 C-1.855625 5.195625 -1.71125 4.39125 -1.5625 3.5625 C-1 1 -1 1 0 0 Z " fill="#032E0A" transform="translate(63,138)"/>
<path d="M0 0 C0.66 0.33 1.32 0.66 2 1 C1.26277589 2.92161695 0.50965305 4.8371387 -0.25 6.75 C-0.87648438 8.35101563 -0.87648438 8.35101563 -1.515625 9.984375 C-2.99892631 12.99781871 -4.49731681 14.79678317 -7 17 C-6.67 15.02 -6.34 13.04 -6 11 C-5.34 11 -4.68 11 -4 11 C-4 10.01 -4 9.02 -4 8 C-3.34 8 -2.68 8 -2 8 C-1.34 5.36 -0.68 2.72 0 0 Z " fill="#26CC55" transform="translate(79,138)"/>
<path d="M0 0 C0.33 0 0.66 0 1 0 C1.09765625 6.15234375 1.09765625 6.15234375 1 8 C0.67 8.33 0.34 8.66 0 9 C-0.23075082 10.34747084 -0.41153063 11.70377565 -0.5625 13.0625 C-0.7790625 15.0115625 -0.7790625 15.0115625 -1 17 C-1.66 16.67 -2.32 16.34 -3 16 C-2.57910004 10.39538469 -2.08386889 5.27913453 0 0 Z " fill="#26CD57" transform="translate(186,100)"/>
<path d="M0 0 C2.33294775 -0.04241723 4.66702567 -0.04092937 7 0 C7.33 0.33 7.66 0.66 8 1 C9.34747084 1.23075082 10.70377565 1.41153063 12.0625 1.5625 C13.361875 1.706875 14.66125 1.85125 16 2 C16 2.33 16 2.66 16 3 C13.70839681 3.02692484 11.41670454 3.04636124 9.125 3.0625 C7.84882812 3.07410156 6.57265625 3.08570313 5.2578125 3.09765625 C2 3 2 3 0 2 C0 1.34 0 0.68 0 0 Z " fill="#011603" transform="translate(81,138)"/>
<path d="M0 0 C0.33 0 0.66 0 1 0 C1.44041451 5.37305699 1.44041451 5.37305699 1 8 C-1.5 10 -1.5 10 -4 11 C-3.5247412 9.35303396 -3.04468109 7.70745272 -2.5625 6.0625 C-2.29566406 5.14597656 -2.02882812 4.22945313 -1.75390625 3.28515625 C-1 1 -1 1 0 0 Z " fill="#064B13" transform="translate(155,112)"/>
<path d="M0 0 C0 0.66 0 1.32 0 2 C-2.97 1.505 -2.97 1.505 -6 1 C-6 3.31 -6 5.62 -6 8 C-6.66 7.34 -7.32 6.68 -8 6 C-7.75 2.9375 -7.75 2.9375 -7 0 C-4.3333581 -1.33332095 -2.83319697 -0.67102033 0 0 Z " fill="#003406" transform="translate(113,108)"/>
<path d="M0 0 C1.13199353 0.9080162 2.25532363 1.82683826 3.375 2.75 C4.00148438 3.26046875 4.62796875 3.7709375 5.2734375 4.296875 C7.08312318 6.08199481 8.00117455 7.67949644 9 10 C7.68 9.34 6.36 8.68 5 8 C5 7.34 5 6.68 5 6 C4.34 6 3.68 6 3 6 C0 2.53846154 0 2.53846154 0 0 Z " fill="#2BC058" transform="translate(106,117)"/>
<path d="M0 0 C1.32 0.33 2.64 0.66 4 1 C4 1.99 4 2.98 4 4 C4.99 4.33 5.98 4.66 7 5 C6.67 6.32 6.34 7.64 6 9 C4.99406757 7.8803014 3.9954151 6.7540588 3 5.625 C2.443125 4.99851563 1.88625 4.37203125 1.3125 3.7265625 C0 2 0 2 0 0 Z " fill="#26D156" transform="translate(92,124)"/>
<path d="M0 0 C0.99 0 1.98 0 3 0 C2.39301257 4.12751449 0.96189209 7.3321148 -1 11 C-2.60080151 6.99799622 -1.29279692 3.95443764 0 0 Z " fill="#012508" transform="translate(145,93)"/>
<path d="M0 0 C1.70840281 1.63412443 2.93453047 2.86906094 4 5 C4.039992 6.99960012 4.04346799 9.00047242 4 11 C3 9 2 7 1 5 C0.34 5 -0.32 5 -1 5 C-0.67 3.35 -0.34 1.7 0 0 Z " fill="#29D55B" transform="translate(125,99)"/>
<path d="M0 0 C0.99 0.33 1.98 0.66 3 1 C3 3.31 3 5.62 3 8 C1.68 7.34 0.36 6.68 -1 6 C-0.67 4.02 -0.34 2.04 0 0 Z " fill="#16BF43" transform="translate(127,106)"/>
<path d="M0 0 C0.33 0.99 0.66 1.98 1 3 C-0.9375 6.1875 -0.9375 6.1875 -3 9 C-3.33 7.68 -3.66 6.36 -4 5 C-3.34 5 -2.68 5 -2 5 C-1.34 3.35 -0.68 1.7 0 0 Z " fill="#2AC759" transform="translate(219,128)"/>
</svg>
